<svg xmlns="http://www.w3.org/2000/svg" viewBox="0 0 64 64" role="img" aria-label="Prazwal Bhusal mark">
  <defs>
    <linearGradient id="g" x1="0" y1="0" x2="1" y2="1">
      <stop offset="0" stop-color="#7c5cff"/>
      <stop offset="1" stop-color="#23c6a6"/>
    </linearGradient>
  </defs>
  <rect x="4" y="4" width="56" height="56" rx="16" fill="#0b1220"/>
  <rect x="4" y="4" width="56" height="56" rx="16" fill="url(#g)" opacity=".25"/>
  <path d="M22 44V20h11.2c6 0 9.2 2.8 9.2 7.4 0 2.6-1.1 4.6-3.2 5.8 2.6 1.1 4 3.2 4 6.2 0 5.2-3.6 8.6-9.8 8.6H22zm6.2-14h4.8c2.2 0 3.6-1 3.6-2.8s-1.3-2.7-3.6-2.7h-4.8V30zm0 8.9h5.4c2.7 0 4.2-1.1 4.2-3.2s-1.5-3.1-4.2-3.1h-5.4v6.3z"
        fill="#eaf0ff"/>
</svg>
